<?xml version="1.0" encoding="UTF-8"?>
<svg width="1200pt" height="1200pt" version="1.1" viewBox="0 0 1200 1200"
    xmlns="http://www.w3.org/2000/svg">
    <path fill="#3B82F6" d="m612.55 705.81c-15.164 51.062-62.449 88.309-118.44 88.309-55.809 0-102.97-37.008-118.29-87.82-138.11 3.9531-199.36 35.922-199.36 87.82 0 46.441 74.078 63.914 289.69 72.363 5.8438 0.22656 5.8438 0.22656 11.703 0.45703 122.61 4.8398 181.67 9.9727 237.96 24.539 82.828 21.434 131.23 63.191 131.23 132.05 0 125.11-173.32 176.47-511.77 176.47-19.492 0-35.293-15.801-35.293-35.293 0-19.492 15.801-35.297 35.293-35.297 296.85 0 441.18-42.762 441.18-105.88 0-56.59-80.129-77.324-301.39-86.059-5.8398-0.23047-5.8398-0.23047-11.684-0.46094-124.38-4.8711-176.34-8.9531-229.89-21.582-80.395-18.961-127.62-56.719-127.62-121.31 0-78.922 55.57-126.73 159.5-147.17-161.37-62.953-265.39-170.27-265.39-294 0-200.38 271.22-352.94 600-352.94s600 152.56 600 352.94c0 197.82-264.34 349.04-587.45 352.87zm516.86-352.87c0-150.48-234.43-282.35-529.41-282.35s-529.41 131.87-529.41 282.35c0 108.69 124.37 211.81 315.43 257.79 21.246-38.332 62.082-63.676 108.1-63.676 55.926 0 103.18 37.168 118.39 88.156 289.07-3.6641 516.9-133.93 516.9-282.27zm-635.29 370.59c29.238 0 52.941-23.703 52.941-52.941 0-29.238-23.703-52.941-52.941-52.941-29.238 0-52.941 23.703-52.941 52.941 0 29.238 23.703 52.941 52.941 52.941z"/>
</svg>
